<svg width="126" height="70" viewBox="0 0 126 70" fill="none" xmlns="http://www.w3.org/2000/svg">
<mask id="path-1-inside-1_7:52" fill="white">
<path d="M69.7653 31.8695L66.4808 27.2507C66.1113 27.2918 65.7281 27.3123 65.3312 27.3123H61.472V31.8695H59.9529V17.5H65.3312C67.1651 17.5 68.602 17.9379 69.6421 18.8138C70.6822 19.6896 71.2022 20.8939 71.2022 22.4267C71.2022 23.5489 70.9148 24.5 70.34 25.2801C69.7789 26.0464 68.9715 26.6007 67.9178 26.9428L71.428 31.8695H69.7653ZM65.2902 26.0191C66.7135 26.0191 67.8014 25.7043 68.5541 25.0748C69.3068 24.4453 69.6832 23.5626 69.6832 22.4267C69.6832 21.2634 69.3068 20.3739 68.5541 19.7581C67.8014 19.1285 66.7135 18.8138 65.2902 18.8138H61.472H59.9529V20.4936L59.9529 22.4472L59.9529 23.915L59.9529 26.0191H65.2902ZM78.2568 20.9897C79.6664 20.9897 80.7475 21.3456 81.5002 22.0572C82.2529 22.7551 82.6292 23.7952 82.6292 25.1774V31.8695H81.2333V30.1862C80.9049 30.7473 80.4191 31.1852 79.7759 31.5C79.1463 31.8148 78.3936 31.9721 77.5178 31.9721C76.3135 31.9721 75.3555 31.6848 74.6439 31.11C73.9323 30.5352 73.5764 29.7757 73.5764 28.8314C73.5764 27.9145 73.9049 27.1755 74.5618 26.6144C75.2324 26.0533 76.293 25.7727 77.7436 25.7727H81.1717V25.1158C81.1717 24.1852 80.9117 23.4805 80.3917 23.0015C79.8717 22.5088 79.1121 22.2625 78.1131 22.2625C77.4288 22.2625 76.7719 22.3788 76.1424 22.6114C75.5129 22.8304 74.9723 23.1383 74.5207 23.5352L73.8638 22.4472C74.4112 21.9819 75.0681 21.6261 75.8345 21.3798C76.6009 21.1197 77.4083 20.9897 78.2568 20.9897ZM77.7436 30.8226C78.5647 30.8226 79.2695 30.6378 79.858 30.2683C80.4464 29.8851 80.8844 29.3377 81.1717 28.6261V26.8607H77.7847C75.9371 26.8607 75.0134 27.5039 75.0134 28.7903C75.0134 29.4198 75.2529 29.9194 75.7319 30.2889C76.2108 30.6447 76.8814 30.8226 77.7436 30.8226ZM95.6612 21.0718L90.8577 31.8695H89.3591L84.5761 21.0718H86.0952L90.1392 30.2683L94.2242 21.0718H95.6612ZM102.032 30.6789C102.702 30.6789 103.318 30.5626 103.879 30.3299C104.454 30.0836 104.94 29.7278 105.337 29.2625L106.158 30.2067C105.679 30.7815 105.084 31.2195 104.372 31.5205C103.66 31.8216 102.874 31.9721 102.011 31.9721C100.903 31.9721 99.9175 31.7395 99.0554 31.2742C98.1932 30.7952 97.5226 30.1383 97.0436 29.3035C96.5647 28.4687 96.3252 27.5244 96.3252 26.4707C96.3252 25.4169 96.551 24.4726 97.0026 23.6378C97.4679 22.803 98.1042 22.153 98.9117 21.6877C99.7191 21.2224 100.636 20.9897 101.662 20.9897C102.62 20.9897 103.483 21.2087 104.249 21.6466C105.029 22.0846 105.645 22.6935 106.096 23.4736C106.562 24.2537 106.808 25.1432 106.835 26.1422L97.9674 27.8666C98.2411 28.7424 98.7338 29.4335 99.4454 29.9399C100.171 30.4326 101.033 30.6789 102.032 30.6789ZM101.662 22.2419C100.91 22.2419 100.232 22.4198 99.6301 22.7757C99.0417 23.1178 98.5764 23.6036 98.2342 24.2331C97.9058 24.849 97.7416 25.5606 97.7416 26.368C97.7416 26.5733 97.7484 26.7239 97.7621 26.8196L105.378 25.3416C105.214 24.4384 104.796 23.6994 104.126 23.1246C103.455 22.5362 102.634 22.2419 101.662 22.2419ZM115.303 20.9897C116.658 20.9897 117.733 21.3866 118.526 22.1804C119.334 22.9604 119.737 24.1031 119.737 25.6085V31.8695H118.28V25.7522C118.28 24.63 117.999 23.7747 117.438 23.1862C116.877 22.5978 116.077 22.3035 115.037 22.3035C113.873 22.3035 112.95 22.6525 112.265 23.3504C111.595 24.0347 111.259 24.9858 111.259 26.2038V31.8695H109.802V21.0718H111.198V23.0631C111.595 22.4062 112.142 21.8998 112.84 21.544C113.552 21.1745 114.373 20.9897 115.303 20.9897ZM65.3312 38.0279C67.1651 38.0279 68.602 38.4658 69.6421 39.3416C70.6822 40.2175 71.2022 41.4218 71.2022 42.9545C71.2022 44.4873 70.6822 45.6916 69.6421 46.5674C68.602 47.4296 67.1651 47.8607 65.3312 47.8607H61.472V52.3974H59.9529V38.0279H65.3312ZM65.2902 46.5264C66.7135 46.5264 67.8014 46.2185 68.5541 45.6026C69.3068 44.9731 69.6832 44.0904 69.6832 42.9545C69.6832 41.7913 69.3068 40.9018 68.5541 40.2859C67.8014 39.6564 66.7135 39.3416 65.2902 39.3416H61.472H59.9529V42.7322L59.9529 46.5811L61.472 46.5264H65.2902ZM74.3794 37.1657H75.8369V52.3974H74.3794V37.1657ZM83.6694 41.5176C85.079 41.5176 86.1601 41.8734 86.9128 42.585C87.6655 43.283 88.0418 44.3231 88.0418 45.7053V52.3974H86.6459V50.7141C86.3175 51.2752 85.8317 51.7131 85.1885 52.0279C84.5589 52.3426 83.8062 52.5 82.9304 52.5C81.7261 52.5 80.7681 52.2126 80.0565 51.6378C79.3449 51.063 78.989 50.3035 78.989 49.3592C78.989 48.4423 79.3175 47.7033 79.9744 47.1422C80.645 46.5811 81.7056 46.3006 83.1562 46.3006H86.5843V45.6437C86.5843 44.7131 86.3243 44.0083 85.8043 43.5293C85.2843 43.0367 84.5247 42.7903 83.5257 42.7903C82.8414 42.7903 82.1845 42.9066 81.555 43.1393C80.9255 43.3583 80.3849 43.6662 79.9333 44.0631L79.2764 42.9751C79.8238 42.5098 80.4807 42.154 81.2471 41.9076C82.0135 41.6476 82.8209 41.5176 83.6694 41.5176ZM83.1562 51.3504C83.9773 51.3504 84.6821 51.1657 85.2706 50.7962C85.859 50.413 86.297 49.8656 86.5843 49.154V47.3886H83.1973C81.3497 47.3886 80.426 48.0318 80.426 49.3182C80.426 49.9477 80.6655 50.4472 81.1445 50.8167C81.6234 51.1725 82.294 51.3504 83.1562 51.3504ZM97.5019 41.5176C98.8568 41.5176 99.931 41.9145 100.725 42.7082C101.532 43.4883 101.936 44.631 101.936 46.1364V52.3974H100.478V46.2801C100.478 45.1579 100.198 44.3025 99.6368 43.7141C99.0757 43.1256 98.2751 42.8314 97.2351 42.8314C96.0718 42.8314 95.1481 43.1804 94.4638 43.8783C93.7932 44.5626 93.4579 45.5137 93.4579 46.7317V52.3974H92.0005V41.5997H93.3963V43.5909C93.7932 42.934 94.3406 42.4277 95.0386 42.0718C95.7502 41.7023 96.5713 41.5176 97.5019 41.5176Z"/>
</mask>
<path d="M69.7653 31.8695L66.4808 27.2507C66.1113 27.2918 65.7281 27.3123 65.3312 27.3123H61.472V31.8695H59.9529V17.5H65.3312C67.1651 17.5 68.602 17.9379 69.6421 18.8138C70.6822 19.6896 71.2022 20.8939 71.2022 22.4267C71.2022 23.5489 70.9148 24.5 70.34 25.2801C69.7789 26.0464 68.9715 26.6007 67.9178 26.9428L71.428 31.8695H69.7653ZM65.2902 26.0191C66.7135 26.0191 67.8014 25.7043 68.5541 25.0748C69.3068 24.4453 69.6832 23.5626 69.6832 22.4267C69.6832 21.2634 69.3068 20.3739 68.5541 19.7581C67.8014 19.1285 66.7135 18.8138 65.2902 18.8138H61.472H59.9529V20.4936L59.9529 22.4472L59.9529 23.915L59.9529 26.0191H65.2902ZM78.2568 20.9897C79.6664 20.9897 80.7475 21.3456 81.5002 22.0572C82.2529 22.7551 82.6292 23.7952 82.6292 25.1774V31.8695H81.2333V30.1862C80.9049 30.7473 80.4191 31.1852 79.7759 31.5C79.1463 31.8148 78.3936 31.9721 77.5178 31.9721C76.3135 31.9721 75.3555 31.6848 74.6439 31.11C73.9323 30.5352 73.5764 29.7757 73.5764 28.8314C73.5764 27.9145 73.9049 27.1755 74.5618 26.6144C75.2324 26.0533 76.293 25.7727 77.7436 25.7727H81.1717V25.1158C81.1717 24.1852 80.9117 23.4805 80.3917 23.0015C79.8717 22.5088 79.1121 22.2625 78.1131 22.2625C77.4288 22.2625 76.7719 22.3788 76.1424 22.6114C75.5129 22.8304 74.9723 23.1383 74.5207 23.5352L73.8638 22.4472C74.4112 21.9819 75.0681 21.6261 75.8345 21.3798C76.6009 21.1197 77.4083 20.9897 78.2568 20.9897ZM77.7436 30.8226C78.5647 30.8226 79.2695 30.6378 79.858 30.2683C80.4464 29.8851 80.8844 29.3377 81.1717 28.6261V26.8607H77.7847C75.9371 26.8607 75.0134 27.5039 75.0134 28.7903C75.0134 29.4198 75.2529 29.9194 75.7319 30.2889C76.2108 30.6447 76.8814 30.8226 77.7436 30.8226ZM95.6612 21.0718L90.8577 31.8695H89.3591L84.5761 21.0718H86.0952L90.1392 30.2683L94.2242 21.0718H95.6612ZM102.032 30.6789C102.702 30.6789 103.318 30.5626 103.879 30.3299C104.454 30.0836 104.94 29.7278 105.337 29.2625L106.158 30.2067C105.679 30.7815 105.084 31.2195 104.372 31.5205C103.66 31.8216 102.874 31.9721 102.011 31.9721C100.903 31.9721 99.9175 31.7395 99.0554 31.2742C98.1932 30.7952 97.5226 30.1383 97.0436 29.3035C96.5647 28.4687 96.3252 27.5244 96.3252 26.4707C96.3252 25.4169 96.551 24.4726 97.0026 23.6378C97.4679 22.803 98.1042 22.153 98.9117 21.6877C99.7191 21.2224 100.636 20.9897 101.662 20.9897C102.62 20.9897 103.483 21.2087 104.249 21.6466C105.029 22.0846 105.645 22.6935 106.096 23.4736C106.562 24.2537 106.808 25.1432 106.835 26.1422L97.9674 27.8666C98.2411 28.7424 98.7338 29.4335 99.4454 29.9399C100.171 30.4326 101.033 30.6789 102.032 30.6789ZM101.662 22.2419C100.91 22.2419 100.232 22.4198 99.6301 22.7757C99.0417 23.1178 98.5764 23.6036 98.2342 24.2331C97.9058 24.849 97.7416 25.5606 97.7416 26.368C97.7416 26.5733 97.7484 26.7239 97.7621 26.8196L105.378 25.3416C105.214 24.4384 104.796 23.6994 104.126 23.1246C103.455 22.5362 102.634 22.2419 101.662 22.2419ZM115.303 20.9897C116.658 20.9897 117.733 21.3866 118.526 22.1804C119.334 22.9604 119.737 24.1031 119.737 25.6085V31.8695H118.28V25.7522C118.28 24.63 117.999 23.7747 117.438 23.1862C116.877 22.5978 116.077 22.3035 115.037 22.3035C113.873 22.3035 112.95 22.6525 112.265 23.3504C111.595 24.0347 111.259 24.9858 111.259 26.2038V31.8695H109.802V21.0718H111.198V23.0631C111.595 22.4062 112.142 21.8998 112.84 21.544C113.552 21.1745 114.373 20.9897 115.303 20.9897ZM65.3312 38.0279C67.1651 38.0279 68.602 38.4658 69.6421 39.3416C70.6822 40.2175 71.2022 41.4218 71.2022 42.9545C71.2022 44.4873 70.6822 45.6916 69.6421 46.5674C68.602 47.4296 67.1651 47.8607 65.3312 47.8607H61.472V52.3974H59.9529V38.0279H65.3312ZM65.2902 46.5264C66.7135 46.5264 67.8014 46.2185 68.5541 45.6026C69.3068 44.9731 69.6832 44.0904 69.6832 42.9545C69.6832 41.7913 69.3068 40.9018 68.5541 40.2859C67.8014 39.6564 66.7135 39.3416 65.2902 39.3416H61.472H59.9529V42.7322L59.9529 46.5811L61.472 46.5264H65.2902ZM74.3794 37.1657H75.8369V52.3974H74.3794V37.1657ZM83.6694 41.5176C85.079 41.5176 86.1601 41.8734 86.9128 42.585C87.6655 43.283 88.0418 44.3231 88.0418 45.7053V52.3974H86.6459V50.7141C86.3175 51.2752 85.8317 51.7131 85.1885 52.0279C84.5589 52.3426 83.8062 52.5 82.9304 52.5C81.7261 52.5 80.7681 52.2126 80.0565 51.6378C79.3449 51.063 78.989 50.3035 78.989 49.3592C78.989 48.4423 79.3175 47.7033 79.9744 47.1422C80.645 46.5811 81.7056 46.3006 83.1562 46.3006H86.5843V45.6437C86.5843 44.7131 86.3243 44.0083 85.8043 43.5293C85.2843 43.0367 84.5247 42.7903 83.5257 42.7903C82.8414 42.7903 82.1845 42.9066 81.555 43.1393C80.9255 43.3583 80.3849 43.6662 79.9333 44.0631L79.2764 42.9751C79.8238 42.5098 80.4807 42.154 81.2471 41.9076C82.0135 41.6476 82.8209 41.5176 83.6694 41.5176ZM83.1562 51.3504C83.9773 51.3504 84.6821 51.1657 85.2706 50.7962C85.859 50.413 86.297 49.8656 86.5843 49.154V47.3886H83.1973C81.3497 47.3886 80.426 48.0318 80.426 49.3182C80.426 49.9477 80.6655 50.4472 81.1445 50.8167C81.6234 51.1725 82.294 51.3504 83.1562 51.3504ZM97.5019 41.5176C98.8568 41.5176 99.931 41.9145 100.725 42.7082C101.532 43.4883 101.936 44.631 101.936 46.1364V52.3974H100.478V46.2801C100.478 45.1579 100.198 44.3025 99.6368 43.7141C99.0757 43.1256 98.2751 42.8314 97.2351 42.8314C96.0718 42.8314 95.1481 43.1804 94.4638 43.8783C93.7932 44.5626 93.4579 45.5137 93.4579 46.7317V52.3974H92.0005V41.5997H93.3963V43.5909C93.7932 42.934 94.3406 42.4277 95.0386 42.0718C95.7502 41.7023 96.5713 41.5176 97.5019 41.5176Z" fill="url(#paint0_linear_7:52)" stroke="url(#paint1_linear_7:52)" stroke-width="2" mask="url(#path-1-inside-1_7:52)"/>
<path d="M20.7662 8.49622L25.4021 9.22608L27.8525 10.5531L29.0446 12.7427L27.1147 12.1265L24.4749 13.1408M20.7662 8.49622L17.8521 7.70001L15.4679 7.89906L9.83856 12.7427M20.7662 8.49622L9.83856 12.7427M9.83856 12.7427L5.59998 27.6716M9.83856 12.7427L22.8855 15.5294M9.83856 12.7427L24.4749 13.1408M9.83856 12.7427L23.6802 29.1976M5.59998 27.6716L14.0109 42.0033M5.59998 27.6716L15.4679 39.5484M5.59998 27.6716L23.6802 29.1976M5.59998 27.6716L34.6231 40.0799M14.0109 42.0033L15.4679 39.5484M14.0109 42.0033L21 43.75M15.4679 39.5484L21 43.75M21 43.75L25.4021 46.55M21 43.75L19.95 58.1L25.4021 46.55M25.4021 46.55L30.3974 47.8041M30.3974 47.8041L38.1728 49.1029L43.2836 50.0239M30.3974 47.8041L39.0548 56L46.277 62.237L44.0762 54.8754M30.3974 47.8041L44.0762 54.8754M22.8855 15.5294L24.4749 13.1408M22.8855 15.5294L23.6802 29.1976M22.8855 15.5294L36.05 29.75L41.4955 36.0318L44.0762 45.9502M22.8855 15.5294L30.4115 31.2709L34.6231 40.0799M44.0762 54.8754L52.1582 56.6668L43.2836 50.0239M43.2836 50.0239L52.9529 51.7663L44.0762 45.9502M34.6231 40.0799L44.0762 45.9502" stroke="url(#paint2_linear_7:52)"/>
<defs>
<linearGradient id="paint0_linear_7:52" x1="89.8452" y1="17.5" x2="89.8452" y2="52.5" gradientUnits="userSpaceOnUse">
<stop stop-color="#C1A3FD"/>
<stop offset="0.541667" stop-color="#755DE5"/>
<stop offset="1" stop-color="#543792"/>
</linearGradient>
<linearGradient id="paint1_linear_7:52" x1="71.0001" y1="18.1563" x2="75.871" y2="54.3791" gradientUnits="userSpaceOnUse">
<stop stop-color="#C1A3FD"/>
<stop offset="0.494792" stop-color="#755DE5"/>
<stop offset="1" stop-color="#543792"/>
</linearGradient>
<linearGradient id="paint2_linear_7:52" x1="14.35" y1="8.75001" x2="29.2764" y2="63.7" gradientUnits="userSpaceOnUse">
<stop stop-color="#C1A3FD"/>
<stop offset="0.494792" stop-color="#755DE5"/>
<stop offset="1" stop-color="#543792"/>
</linearGradient>
</defs>
</svg>
