<svg width="1502" height="1568" viewBox="0 0 1502 1568" fill="none" xmlns="http://www.w3.org/2000/svg">
<path d="M1130.12 182.945C1249.07 294.853 1326.8 434.737 1397.47 590.941C1469.31 745.98 1532.9 919.67 1485.8 1053.73C1438.69 1188.95 1280.87 1285.7 1130.12 1377.79C980.553 1468.72 838.049 1554.98 687.301 1566.64C536.553 1578.29 377.561 1514.18 249.189 1416.26C119.64 1318.34 20.7116 1184.28 3.04582 1044.4C-14.62 905.681 47.7992 759.968 106.685 621.25C164.393 483.697 217.391 354.304 315.142 236.568C412.892 117.666 554.219 12.7526 703.789 1.09552C853.36 -10.5615 1012.35 72.2034 1130.12 182.945Z" fill="#7F77FF"/>
<g clip-path="url(#clip0)">
<path d="M1120.89 1055.1C1120.99 1054.81 1130.31 1025.98 1113.82 1000.25L1112.13 1001.33C1128.1 1026.24 1119.09 1054.19 1119 1054.47L1120.89 1055.1Z" fill="#E4E4E4"/>
<path d="M1102.02 1003.95C1102.38 1005.64 1103.06 1007.24 1104.04 1008.66C1105.01 1010.08 1106.25 1011.29 1107.7 1012.23C1109.14 1013.17 1110.75 1013.82 1112.45 1014.14C1114.14 1014.45 1115.88 1014.43 1117.56 1014.08C1119.25 1013.72 1120.85 1013.04 1122.27 1012.07C1123.69 1011.09 1124.9 1009.85 1125.84 1008.41C1126.78 1006.96 1127.43 1005.35 1127.75 1003.66C1128.06 1001.96 1128.04 1000.23 1127.69 998.54C1126.19 991.454 1113.52 973.818 1106.44 975.313C1099.35 976.807 1100.53 996.866 1102.02 1003.95Z" fill="#E4E4E4"/>
<path d="M1104.41 1037.1C1110.74 1043.93 1122.05 1043.74 1122.05 1043.74C1122.05 1043.74 1123.11 1032.48 1116.79 1025.64C1110.46 1018.81 1099.15 1019 1099.15 1019C1099.15 1019 1098.09 1030.26 1104.41 1037.1Z" fill="#E4E4E4"/>
<path d="M1200.27 1057.1C1200.5 1056.42 1222.49 988.38 1183.57 927.668L1179.59 930.215C1217.27 988.985 1196.01 1054.95 1195.79 1055.61L1200.27 1057.1Z" fill="#E4E4E4"/>
<path d="M1155.74 936.399C1157.43 944.428 1162.25 951.455 1169.13 955.934C1176 960.413 1184.37 961.978 1192.4 960.285C1200.43 958.592 1207.46 953.779 1211.94 946.904C1216.42 940.03 1217.99 931.657 1216.3 923.627C1212.77 906.904 1182.87 865.284 1166.15 868.811C1149.43 872.338 1152.21 919.676 1155.74 936.399Z" fill="#E4E4E4"/>
<path d="M1161.38 1014.61C1176.3 1030.74 1203 1030.3 1203 1030.3C1203 1030.3 1205.51 1003.72 1190.58 987.59C1175.66 971.462 1148.96 971.9 1148.96 971.9C1148.96 971.9 1146.45 998.486 1161.38 1014.61Z" fill="#E4E4E4"/>
<path d="M828.096 1051.97L813.504 1045.83L803.493 972.679H670.189L659.339 1045.53L646.283 1052.06C645.659 1052.37 645.158 1052.89 644.862 1053.52C644.566 1054.15 644.492 1054.86 644.653 1055.54C644.813 1056.22 645.198 1056.83 645.746 1057.26C646.294 1057.7 646.972 1057.93 647.67 1057.93H826.893C827.609 1057.93 828.303 1057.68 828.857 1057.23C829.411 1056.78 829.791 1056.15 829.932 1055.45C830.074 1054.74 829.968 1054.01 829.634 1053.38C829.299 1052.75 828.756 1052.25 828.096 1051.97V1051.97Z" fill="#E6E6E6"/>
<path d="M1064.99 982.411H410.158C406.723 982.404 403.43 981.033 401.004 978.601C398.577 976.169 397.214 972.874 397.214 969.438V877.098H1077.93V969.438C1077.93 972.874 1076.57 976.169 1074.14 978.601C1071.72 981.033 1068.42 982.404 1064.99 982.411V982.411Z" fill="#CCCCCC"/>
<path d="M1078.62 920.74H396.616V525.639C396.621 521.493 398.27 517.518 401.202 514.586C404.134 511.654 408.109 510.005 412.256 510H1062.98C1067.12 510.005 1071.1 511.654 1074.03 514.586C1076.96 517.518 1078.61 521.493 1078.62 525.639V920.74Z" fill="#3F3D56"/>
<path d="M1037.89 538.676H437.347C434.151 538.68 431.087 539.952 428.828 542.213C426.568 544.474 425.299 547.539 425.297 550.736V880.006C425.299 883.202 426.568 886.267 428.828 888.528C431.087 890.789 434.151 892.062 437.347 892.066H1037.89C1041.08 892.06 1044.15 890.787 1046.41 888.527C1048.66 886.266 1049.93 883.202 1049.94 880.006V550.736C1049.93 547.54 1048.66 544.476 1046.41 542.215C1044.15 539.954 1041.08 538.681 1037.89 538.676Z" fill="white"/>
<path d="M543.797 538.676V892.066H437.347C434.151 892.062 431.087 890.789 428.827 888.528C426.568 886.267 425.299 883.202 425.297 880.006V550.736C425.299 547.539 426.568 544.474 428.827 542.213C431.087 539.952 434.151 538.68 437.347 538.676H543.797Z" fill="#F0F0F0"/>
<path d="M455.978 717.197C454.779 716.924 453.536 716.917 452.335 717.177C451.134 717.437 450.004 717.957 449.026 718.7C448.047 719.444 447.244 720.393 446.672 721.481C446.1 722.568 445.773 723.768 445.715 724.996L417.062 733.443L428.924 743.457L454.315 733.9C456.383 733.861 458.366 733.064 459.887 731.661C461.407 730.258 462.36 728.346 462.565 726.287C462.77 724.228 462.213 722.165 460.999 720.49C459.785 718.815 457.998 717.643 455.978 717.197H455.978Z" fill="#FFB6B6"/>
<path d="M340.205 780.771C337.372 780.768 334.633 779.758 332.476 777.922C330.318 776.087 328.883 773.545 328.425 770.749C327.968 767.954 328.518 765.086 329.978 762.659C331.438 760.232 333.713 758.402 336.397 757.495L394.461 737.895L439.753 721.395L445.312 740.85L405.328 767.197L342.704 780.508C341.883 780.683 341.045 780.771 340.205 780.771V780.771Z" fill="#543792"/>
<path d="M376.541 1048.79H384.693L388.572 1017.35H376.539L376.541 1048.79Z" fill="#FFB6B6"/>
<path d="M374.461 1046.13L390.516 1046.13H390.517C393.23 1046.13 395.833 1047.21 397.752 1049.13C399.67 1051.05 400.748 1053.65 400.749 1056.36V1056.69L374.462 1056.69L374.461 1046.13Z" fill="#2F2E41"/>
<path d="M314.033 1048.79H322.185L326.064 1017.35H314.032L314.033 1048.79Z" fill="#FFB6B6"/>
<path d="M311.953 1046.13L328.009 1046.13H328.009C330.723 1046.13 333.325 1047.21 335.244 1049.13C337.163 1051.05 338.241 1053.65 338.241 1056.36V1056.69L311.954 1056.69L311.953 1046.13Z" fill="#2F2E41"/>
<path d="M313.952 860.177C310.221 868.867 309.405 878.532 311.625 887.726L309.297 1043.71H327.202L337.226 957.928L353.851 901.405L371.805 945.293V1036.76L389.095 1035.73L398.404 938.644L387.765 869.486L313.952 860.177Z" fill="#2F2E41"/>
<path d="M379.452 738.818L364.158 734.164L360.168 726.184H340.522L335.564 734.829C335.564 734.829 315.615 742.143 314.95 777.387C314.285 812.631 311.625 869.154 311.625 869.154L390.286 880.368L379.452 738.818Z" fill="#543792"/>
<path d="M402.035 874.056C402.551 872.941 402.816 871.726 402.812 870.497C402.807 869.268 402.534 868.055 402.01 866.944C401.486 865.832 400.725 864.849 399.78 864.063C398.835 863.277 397.729 862.708 396.54 862.396L394.235 832.613L381.974 842.134L386.043 868.957C385.651 870.988 386.018 873.093 387.074 874.872C388.131 876.651 389.803 877.981 391.774 878.61C393.745 879.238 395.879 879.122 397.77 878.283C399.661 877.444 401.179 875.94 402.035 874.056H402.035Z" fill="#FFB6B6"/>
<path d="M381.116 858.706L363.658 814.118V750.095C363.658 747.046 364.823 744.111 366.916 741.893C369.009 739.675 371.87 738.341 374.915 738.164C377.959 737.987 380.956 738.981 383.292 740.942C385.627 742.902 387.125 745.681 387.479 748.71L394.579 809.581L401.301 857.313L381.116 858.706Z" fill="#543792"/>
<path d="M354.114 715.833C364.957 715.833 373.746 707.043 373.746 696.2C373.746 685.357 364.957 676.568 354.114 676.568C343.271 676.568 334.481 685.357 334.481 696.2C334.481 707.043 343.271 715.833 354.114 715.833Z" fill="#FFB9B9"/>
<path d="M355.399 690.232C354.481 691.411 353.222 692.476 353.019 693.957C352.87 695.054 353.349 696.139 353.395 697.245C353.398 698.362 352.976 699.438 352.214 700.254C351.452 701.071 350.407 701.566 349.293 701.638C348.516 700.661 347.395 700.02 346.159 699.846C345.544 699.777 344.923 699.906 344.388 700.216C343.852 700.525 343.429 700.999 343.183 701.566C342.6 703.213 343.949 704.886 344.166 706.62C344.195 707.902 343.987 709.179 343.554 710.386C343.057 712.375 342.924 714.479 342.051 716.334C341.178 718.19 339.238 719.785 337.229 719.375C335.539 719.031 334.396 717.395 333.924 715.737C333.452 714.079 333.473 712.32 333.131 710.631C332.02 705.14 327.294 701.072 325.44 695.786C323.064 689.012 325.918 681.264 330.837 676.037C332.826 673.747 335.422 672.066 338.326 671.188C341.391 670.408 344.632 670.969 347.778 670.635C351.142 670.278 354.304 668.911 357.573 668.042C360.843 667.173 364.495 666.846 367.466 668.463C369.539 669.59 371.04 671.534 372.971 672.889C375.185 674.432 377.869 675.15 380.558 674.92L377.347 676.323C378.576 677.451 380.06 678.264 381.672 678.692C380.36 679.732 378.737 680.301 377.063 680.31C377.413 680.939 377.887 681.49 378.457 681.928C379.028 682.367 379.682 682.684 380.38 682.86C377.942 684.004 375.354 685.176 372.673 684.918C371.36 684.792 370.105 684.325 368.808 684.085C366.044 683.573 363.205 684.104 360.444 684.633C358.994 684.912 357.214 685.178 356.482 686.573C355.872 687.734 356.338 689.027 355.399 690.232Z" fill="#2F2E41"/>
<path d="M484.547 746.691C501.845 746.691 515.867 732.668 515.867 715.371C515.867 698.073 501.845 684.051 484.547 684.051C467.25 684.051 453.227 698.073 453.227 715.371C453.227 732.668 467.25 746.691 484.547 746.691Z" fill="#543792"/>
<path d="M503.339 715.371H486.427V698.458H482.668V715.371H465.755V719.129H482.668V736.042H486.427V719.129H503.339V715.371Z" fill="white"/>
<path d="M751.256 580.008C750.29 580.009 749.364 580.394 748.681 581.077C747.998 581.76 747.614 582.686 747.613 583.651V644.649C747.614 645.615 747.998 646.541 748.681 647.224C749.364 647.908 750.29 648.292 751.256 648.293H997.158C998.124 648.292 999.05 647.908 999.733 647.224C1000.42 646.541 1000.8 645.615 1000.8 644.649V583.651C1000.8 582.686 1000.42 581.76 999.733 581.077C999.05 580.394 998.124 580.009 997.158 580.008H751.256Z" fill="white"/>
<path d="M751.256 580.008C750.29 580.009 749.364 580.394 748.681 581.077C747.998 581.76 747.614 582.686 747.613 583.651V644.649C747.614 645.615 747.998 646.541 748.681 647.224C749.364 647.908 750.29 648.292 751.256 648.293H997.158C998.124 648.292 999.05 647.908 999.733 647.224C1000.42 646.541 1000.8 645.615 1000.8 644.649V583.651C1000.8 582.686 1000.42 581.76 999.733 581.077C999.05 580.394 998.124 580.009 997.158 580.008H751.256Z" fill="#E6E6E6"/>
<path d="M751.711 644.194H996.703V584.107H751.711V644.194Z" fill="white"/>
<path d="M779.566 601.4C778.72 601.4 777.909 601.736 777.312 602.334C776.714 602.932 776.378 603.742 776.378 604.588C776.378 605.433 776.714 606.244 777.312 606.842C777.909 607.44 778.72 607.775 779.566 607.775H968.839C969.258 607.776 969.673 607.693 970.059 607.533C970.446 607.373 970.798 607.139 971.094 606.843C971.39 606.547 971.625 606.196 971.785 605.809C971.946 605.422 972.028 605.008 972.028 604.589C972.029 604.171 971.946 603.756 971.786 603.369C971.626 602.982 971.392 602.631 971.096 602.335C970.8 602.039 970.449 601.804 970.062 601.643C969.675 601.483 969.261 601.4 968.842 601.4H779.566Z" fill="#E4E4E4"/>
<path d="M779.565 620.526C778.721 620.527 777.912 620.864 777.315 621.461C776.719 622.059 776.384 622.869 776.384 623.714C776.384 624.558 776.719 625.368 777.315 625.965C777.912 626.563 778.721 626.9 779.565 626.901H968.839C969.685 626.903 970.496 626.569 971.095 625.973C971.695 625.376 972.032 624.566 972.034 623.721C972.036 622.875 971.702 622.064 971.105 621.465C970.509 620.865 969.699 620.528 968.854 620.526H779.565V620.526Z" fill="#E4E4E4"/>
<path d="M580.256 683.508C579.29 683.509 578.364 683.894 577.681 684.577C576.998 685.26 576.614 686.186 576.613 687.151V748.149C576.614 749.115 576.998 750.041 577.681 750.724C578.364 751.408 579.29 751.792 580.256 751.793H826.158C827.124 751.792 828.05 751.408 828.733 750.724C829.416 750.041 829.8 749.115 829.801 748.149V687.151C829.8 686.186 829.416 685.26 828.733 684.577C828.05 683.894 827.124 683.509 826.158 683.508H580.256Z" fill="white"/>
<path d="M580.256 683.508C579.29 683.509 578.364 683.894 577.681 684.577C576.998 685.26 576.614 686.186 576.613 687.151V748.149C576.614 749.115 576.998 750.041 577.681 750.724C578.364 751.408 579.29 751.792 580.256 751.793H826.158C827.124 751.792 828.05 751.408 828.733 750.724C829.416 750.041 829.8 749.115 829.801 748.149V687.151C829.8 686.186 829.416 685.26 828.733 684.577C828.05 683.894 827.124 683.509 826.158 683.508H580.256Z" fill="#E6E6E6"/>
<path d="M580.711 747.694H825.703V687.607H580.711V747.694Z" fill="white"/>
<path d="M608.566 704.9C607.72 704.9 606.909 705.236 606.312 705.834C605.714 706.432 605.378 707.242 605.378 708.088C605.378 708.933 605.714 709.744 606.312 710.342C606.909 710.94 607.72 711.275 608.566 711.275H797.839C798.258 711.276 798.672 711.193 799.059 711.033C799.446 710.873 799.798 710.639 800.094 710.343C800.39 710.047 800.625 709.696 800.785 709.309C800.946 708.922 801.028 708.508 801.028 708.089C801.029 707.671 800.946 707.256 800.786 706.869C800.626 706.482 800.392 706.131 800.096 705.835C799.8 705.539 799.448 705.304 799.062 705.143C798.675 704.983 798.261 704.9 797.842 704.9H608.566Z" fill="#E4E4E4"/>
<path d="M608.566 724.026C607.721 724.027 606.912 724.364 606.315 724.961C605.719 725.559 605.384 726.369 605.384 727.214C605.384 728.058 605.719 728.868 606.315 729.465C606.912 730.063 607.721 730.4 608.566 730.401H797.839C798.685 730.403 799.496 730.069 800.096 729.473C800.695 728.876 801.032 728.066 801.034 727.221C801.036 726.375 800.702 725.564 800.106 724.965C799.509 724.365 798.699 724.028 797.854 724.026H608.566V724.026Z" fill="#E4E4E4"/>
<path d="M879.992 847.221C881.087 847.101 882.143 846.741 883.084 846.169C884.025 845.596 884.83 844.824 885.44 843.907C886.051 842.99 886.453 841.95 886.618 840.861C886.784 839.772 886.708 838.659 886.397 837.602L908.19 822.036L895.202 817.035L876.498 832.584C874.758 833.224 873.312 834.481 872.436 836.116C871.559 837.751 871.313 839.65 871.744 841.454C872.175 843.259 873.252 844.842 874.772 845.905C876.293 846.968 878.15 847.436 879.992 847.221V847.221Z" fill="#FFB7B7"/>
<path d="M892.091 836.969L884.862 824.621L885.015 824.446L914.185 791.237L936.833 752.615L956.5 755.121L956.79 761.066L956.731 761.155L925.485 808.124L925.452 808.153L892.091 836.969Z" fill="#3F3D56"/>
<path d="M988.467 1045.91L977.346 1045.91L972.054 1003.01L988.469 1003.02L988.467 1045.91Z" fill="#FFB7B7"/>
<path d="M991.304 1056.69L955.442 1056.69V1056.24C955.442 1052.54 956.913 1048.99 959.531 1046.37C962.148 1043.75 965.698 1042.28 969.4 1042.28H969.401L991.304 1042.28L991.304 1056.69Z" fill="#2F2E41"/>
<path d="M892.748 1045.55L881.93 1042.97L886.746 1000.01L902.712 1003.82L892.748 1045.55Z" fill="#FFB7B7"/>
<path d="M893.003 1056.69L858.122 1048.37L858.227 1047.92C859.087 1044.32 861.342 1041.21 864.496 1039.27C867.65 1037.34 871.445 1036.73 875.046 1037.59L875.046 1037.59L896.351 1042.68L893.003 1056.69Z" fill="#2F2E41"/>
<path d="M935.973 733.002V714.281C935.973 707.627 938.616 701.246 943.32 696.542C948.025 691.837 954.406 689.194 961.059 689.194C967.712 689.194 974.093 691.837 978.798 696.542C983.502 701.246 986.145 707.627 986.145 714.281V733.002C986.144 733.895 985.789 734.752 985.157 735.383C984.525 736.015 983.669 736.37 982.775 736.371H939.342C938.449 736.37 937.592 736.015 936.961 735.383C936.329 734.752 935.974 733.895 935.973 733.002V733.002Z" fill="#2F2E41"/>
<path d="M954.868 736.087C965.025 736.087 973.26 727.852 973.26 717.695C973.26 707.537 965.025 699.302 954.868 699.302C944.71 699.302 936.475 707.537 936.475 717.695C936.475 727.852 944.71 736.087 954.868 736.087Z" fill="#FFB7B7"/>
<path d="M930.038 715.778C930.044 710.517 932.136 705.473 935.857 701.753C939.577 698.032 944.621 695.94 949.882 695.934H953.627C958.888 695.94 963.932 698.032 967.652 701.753C971.372 705.473 973.465 710.517 973.471 715.778V716.153H965.558L962.859 708.595L962.319 716.153H958.23L956.868 712.34L956.596 716.153H930.038V715.778Z" fill="#2F2E41"/>
<path d="M965.596 814.768L918.766 812.986L916.148 782.349C914.129 776.741 914.096 771.926 916.051 768.038C917.732 764.845 920.556 762.404 923.959 761.203L934.206 748.827C935.525 747.236 937.18 745.958 939.053 745.085C940.926 744.212 942.97 743.766 945.036 743.779L971.659 743.961C972.301 743.575 976.194 741.597 983.871 744.925C992.198 748.535 990.264 761.072 990.243 761.198L990.224 761.316L990.133 761.393L972.423 776.307L965.596 814.768Z" fill="#3F3D56"/>
<path d="M919.139 809.694L896.988 850.08L880.194 1033.82L899.169 1039.61L932.756 895.882L971.736 1035.53L994.481 1036.1L978.994 874.944L965.46 812.548L919.139 809.694Z" fill="#2F2E41"/>
<path d="M775.776 779.758C774.857 779.461 773.857 779.541 772.997 779.98C772.137 780.419 771.486 781.181 771.187 782.1L752.377 840.125C752.08 841.044 752.16 842.044 752.599 842.904C753.038 843.765 753.8 844.416 754.719 844.715L988.638 920.543C989.557 920.84 990.556 920.76 991.417 920.321C992.277 919.882 992.928 919.12 993.227 918.201L1012.04 860.176C1012.33 859.256 1012.25 858.257 1011.81 857.397C1011.38 856.537 1010.61 855.886 1009.69 855.587L775.776 779.758Z" fill="white"/>
<path d="M775.776 779.758C774.857 779.461 773.857 779.541 772.997 779.98C772.137 780.419 771.486 781.181 771.187 782.1L752.377 840.125C752.08 841.044 752.16 842.044 752.599 842.904C753.038 843.765 753.8 844.416 754.719 844.715L988.638 920.543C989.557 920.84 990.556 920.76 991.417 920.321C992.277 919.882 992.928 919.12 993.227 918.201L1012.04 860.176C1012.33 859.256 1012.25 858.257 1011.81 857.397C1011.38 856.537 1010.61 855.886 1009.69 855.587L775.776 779.758Z" fill="#E6E6E6"/>
<path d="M756.416 840.956L989.468 916.504L1008 859.345L774.945 783.797L756.416 840.956Z" fill="white"/>
<path d="M796.11 808.837C795.306 808.577 794.431 808.647 793.678 809.031C792.926 809.415 792.357 810.083 792.096 810.887C791.835 811.691 791.905 812.565 792.289 813.318C792.673 814.071 793.34 814.641 794.144 814.902L974.194 873.268C974.592 873.398 975.012 873.448 975.43 873.415C975.847 873.382 976.254 873.268 976.628 873.078C977.001 872.888 977.333 872.626 977.605 872.307C977.877 871.989 978.084 871.62 978.213 871.221C978.342 870.823 978.392 870.403 978.359 869.985C978.326 869.568 978.211 869.161 978.02 868.788C977.83 868.414 977.568 868.083 977.249 867.811C976.93 867.539 976.561 867.333 976.162 867.204L976.16 867.203L796.11 808.837Z" fill="#543792"/>
<path d="M790.212 827.031C789.408 826.772 788.535 826.843 787.783 827.227C787.031 827.612 786.463 828.279 786.203 829.082C785.942 829.885 786.011 830.759 786.394 831.511C786.777 832.264 787.443 832.833 788.246 833.095L968.296 891.461C969.099 891.724 969.974 891.656 970.728 891.274C971.482 890.891 972.053 890.225 972.316 889.421C972.578 888.617 972.511 887.742 972.128 886.989C971.745 886.235 971.079 885.664 970.275 885.401L970.262 885.397L790.212 827.031Z" fill="#543792"/>
<path d="M978.32 875.075C979.14 874.34 979.788 873.433 980.22 872.419C980.652 871.405 980.856 870.309 980.818 869.208C980.78 868.107 980.501 867.028 980.001 866.046C979.501 865.064 978.792 864.204 977.923 863.526L986.571 838.179L973.101 841.679L966.954 865.212C965.912 866.747 965.469 868.61 965.709 870.45C965.949 872.289 966.855 873.976 968.256 875.192C969.657 876.408 971.455 877.068 973.31 877.046C975.165 877.025 976.947 876.323 978.32 875.075V875.075Z" fill="#FFB7B7"/>
<path d="M982.183 859.694L969.114 853.868L973.505 809.653L969.419 765.067L986.865 755.649L990.563 760.312L990.567 760.418L992.527 816.797L992.516 816.84L982.183 859.694Z" fill="#3F3D56"/>
<path d="M1252.04 1058.69H568.588C568.242 1058.7 567.904 1058.6 567.626 1058.39C567.347 1058.18 567.145 1057.89 567.049 1057.56C566.989 1057.34 566.982 1057.1 567.029 1056.87C567.075 1056.64 567.173 1056.42 567.316 1056.24C567.459 1056.05 567.642 1055.9 567.852 1055.8C568.062 1055.7 568.292 1055.64 568.526 1055.64H1251.91C1252.28 1055.63 1252.63 1055.74 1252.93 1055.96C1253.22 1056.17 1253.43 1056.48 1253.53 1056.84C1253.58 1057.06 1253.58 1057.29 1253.52 1057.51C1253.47 1057.74 1253.37 1057.94 1253.23 1058.12C1253.08 1058.3 1252.9 1058.45 1252.7 1058.54C1252.49 1058.64 1252.27 1058.69 1252.04 1058.69Z" fill="#CCCCCC"/>
<path d="M478.036 1058.69H249.588C249.242 1058.7 248.904 1058.6 248.626 1058.39C248.347 1058.18 248.145 1057.89 248.049 1057.56C247.989 1057.34 247.982 1057.1 248.029 1056.87C248.075 1056.64 248.173 1056.42 248.316 1056.24C248.459 1056.05 248.642 1055.9 248.852 1055.8C249.062 1055.7 249.292 1055.64 249.526 1055.64H477.911C478.276 1055.63 478.634 1055.74 478.928 1055.96C479.221 1056.17 479.432 1056.48 479.527 1056.84C479.577 1057.06 479.576 1057.29 479.524 1057.51C479.472 1057.74 479.371 1057.94 479.227 1058.12C479.084 1058.3 478.903 1058.45 478.697 1058.54C478.491 1058.64 478.265 1058.69 478.036 1058.69V1058.69Z" fill="#CCCCCC"/>
</g>
<defs>
<clipPath id="clip0">
<rect width="1005.56" height="548.695" fill="white" transform="translate(248 510)"/>
</clipPath>
</defs>
</svg>
