<svg width="1000" height="150" viewBox="0 0 1000 150" fill="none" xmlns="http://www.w3.org/2000/svg">
<rect width="1000" height="150" rx="10" fill="#FEFDFF"/>
<mask id="path-2-inside-1_401_570" fill="white">
<path d="M514.514 69.0154L507.71 59.448C506.945 59.533 506.151 59.5755 505.329 59.5755H497.335V69.0154H494.188V39.25H505.329C509.128 39.25 512.104 40.1571 514.259 41.9714C516.413 43.7857 517.49 46.2803 517.49 49.4553C517.49 51.7798 516.895 53.75 515.704 55.3658C514.542 56.9533 512.87 58.1014 510.687 58.8101L517.958 69.0154H514.514ZM505.244 56.8966C508.192 56.8966 510.446 56.2446 512.005 54.9406C513.564 53.6366 514.344 51.8082 514.344 49.4553C514.344 47.0457 513.564 45.2031 512.005 43.9274C510.446 42.6234 508.192 41.9714 505.244 41.9714H497.335H494.188V45.4511L494.188 49.4978L494.188 52.5381L494.188 56.8966H505.244ZM532.103 46.4787C535.023 46.4787 537.263 47.2158 538.822 48.6899C540.381 50.1356 541.161 52.2901 541.161 55.1532V69.0154H538.269V65.5286C537.589 66.6909 536.582 67.598 535.25 68.25C533.946 68.902 532.387 69.228 530.573 69.228C528.078 69.228 526.094 68.6327 524.619 67.4421C523.145 66.2515 522.408 64.6782 522.408 62.7221C522.408 60.8228 523.089 59.292 524.449 58.1298C525.838 56.9675 528.035 56.3864 531.04 56.3864H538.141V55.0257C538.141 53.098 537.603 51.6381 536.526 50.6459C535.448 49.6254 533.875 49.1151 531.806 49.1151C530.388 49.1151 529.028 49.3561 527.724 49.838C526.42 50.2915 525.3 50.9294 524.364 51.7515L523.004 49.4978C524.138 48.534 525.498 47.7969 527.086 47.2867C528.673 46.748 530.346 46.4787 532.103 46.4787ZM531.04 66.8468C532.741 66.8468 534.201 66.4641 535.42 65.6987C536.639 64.9049 537.546 63.771 538.141 62.2969V58.64H531.125C527.298 58.64 525.385 59.9724 525.385 62.6371C525.385 63.9411 525.881 64.9758 526.873 65.7412C527.865 66.4783 529.254 66.8468 531.04 66.8468ZM568.155 46.6488L558.205 69.0154H555.101L545.193 46.6488H548.34L556.717 65.6987L565.179 46.6488H568.155ZM581.352 66.5491C582.741 66.5491 584.016 66.3082 585.179 65.8262C586.369 65.316 587.376 64.5789 588.198 63.6151L589.899 65.5711C588.907 66.7617 587.673 67.6689 586.199 68.2925C584.725 68.9162 583.095 69.228 581.309 69.228C579.013 69.228 576.972 68.7461 575.186 67.7823C573.4 66.7901 572.011 65.4294 571.019 63.7002C570.027 61.9709 569.531 60.0149 569.531 57.8321C569.531 55.6493 569.998 53.6933 570.934 51.9641C571.898 50.2349 573.216 48.8883 574.888 47.9245C576.561 46.9607 578.46 46.4787 580.586 46.4787C582.571 46.4787 584.357 46.9323 585.944 47.8394C587.56 48.7466 588.836 50.0081 589.771 51.6239C590.735 53.2397 591.245 55.0824 591.302 57.1518L572.932 60.7236C573.499 62.5379 574.52 63.9695 575.994 65.0183C577.496 66.0389 579.282 66.5491 581.352 66.5491ZM580.586 49.0726C579.027 49.0726 577.624 49.4411 576.377 50.1782C575.158 50.8869 574.194 51.8932 573.485 53.1972C572.805 54.4729 572.465 55.947 572.465 57.6195C572.465 58.0447 572.479 58.3566 572.507 58.555L588.283 55.4934C587.943 53.6224 587.078 52.0916 585.689 50.901C584.3 49.6821 582.599 49.0726 580.586 49.0726ZM608.843 46.4787C611.649 46.4787 613.875 47.3008 615.519 48.945C617.191 50.5609 618.028 52.9279 618.028 56.0462V69.0154H615.008V56.3438C615.008 54.0193 614.427 52.2476 613.265 51.0286C612.103 49.8096 610.444 49.2001 608.29 49.2001C605.88 49.2001 603.967 49.923 602.55 51.3688C601.16 52.7862 600.466 54.7564 600.466 57.2793V69.0154H597.447V46.6488H600.338V50.7735C601.16 49.4128 602.294 48.3639 603.74 47.6268C605.214 46.8614 606.915 46.4787 608.843 46.4787ZM505.329 81.772C509.128 81.772 512.104 82.6791 514.259 84.4934C516.413 86.3077 517.49 88.8023 517.49 91.9773C517.49 95.1523 516.413 97.6469 514.259 99.4611C512.104 101.247 509.128 102.14 505.329 102.14H497.335V111.537H494.188V81.772H505.329ZM505.244 99.3761C508.192 99.3761 510.446 98.7383 512.005 97.4626C513.564 96.1586 514.344 94.3302 514.344 91.9773C514.344 89.5677 513.564 87.7251 512.005 86.4494C510.446 85.1454 508.192 84.4934 505.244 84.4934H497.335H494.188V91.5166L494.188 99.4895L497.335 99.3761H505.244ZM524.072 79.9861H527.091V111.537H524.072V79.9861ZM543.315 89.0007C546.235 89.0007 548.474 89.7378 550.034 91.2119C551.593 92.6576 552.372 94.8121 552.372 97.6752V111.537H549.481V108.051C548.8 109.213 547.794 110.12 546.462 110.772C545.158 111.424 543.599 111.75 541.784 111.75C539.29 111.75 537.305 111.155 535.831 109.964C534.357 108.773 533.62 107.2 533.62 105.244C533.62 103.345 534.3 101.814 535.661 100.652C537.05 99.4895 539.247 98.9084 542.252 98.9084H549.353V97.5477C549.353 95.62 548.815 94.1601 547.737 93.1679C546.66 92.1474 545.087 91.6371 543.017 91.6371C541.6 91.6371 540.239 91.8781 538.935 92.36C537.631 92.8135 536.512 93.4514 535.576 94.2735L534.215 92.0198C535.349 91.056 536.71 90.3189 538.298 89.8087C539.885 89.27 541.558 89.0007 543.315 89.0007ZM542.252 109.369C543.953 109.369 545.413 108.986 546.632 108.221C547.851 107.427 548.758 106.293 549.353 104.819V101.162H542.337C538.51 101.162 536.597 102.494 536.597 105.159C536.597 106.463 537.093 107.498 538.085 108.263C539.077 109 540.466 109.369 542.252 109.369ZM571.968 89.0007C574.775 89.0007 577 89.8228 578.644 91.467C580.317 93.0829 581.153 95.4499 581.153 98.5682V111.537H578.134V98.8658C578.134 96.5413 577.553 94.7696 576.391 93.5506C575.228 92.3316 573.57 91.7221 571.415 91.7221C569.006 91.7221 567.092 92.445 565.675 93.8908C564.286 95.3082 563.591 97.2783 563.591 99.8013V111.537H560.572V89.1708H563.464V93.2955C564.286 91.9348 565.42 90.8859 566.866 90.1488C568.34 89.3834 570.041 89.0007 571.968 89.0007Z"/>
</mask>
<path d="M514.514 69.0154L507.71 59.448C506.945 59.533 506.151 59.5755 505.329 59.5755H497.335V69.0154H494.188V39.25H505.329C509.128 39.25 512.104 40.1571 514.259 41.9714C516.413 43.7857 517.49 46.2803 517.49 49.4553C517.49 51.7798 516.895 53.75 515.704 55.3658C514.542 56.9533 512.87 58.1014 510.687 58.8101L517.958 69.0154H514.514ZM505.244 56.8966C508.192 56.8966 510.446 56.2446 512.005 54.9406C513.564 53.6366 514.344 51.8082 514.344 49.4553C514.344 47.0457 513.564 45.2031 512.005 43.9274C510.446 42.6234 508.192 41.9714 505.244 41.9714H497.335H494.188V45.4511L494.188 49.4978L494.188 52.5381L494.188 56.8966H505.244ZM532.103 46.4787C535.023 46.4787 537.263 47.2158 538.822 48.6899C540.381 50.1356 541.161 52.2901 541.161 55.1532V69.0154H538.269V65.5286C537.589 66.6909 536.582 67.598 535.25 68.25C533.946 68.902 532.387 69.228 530.573 69.228C528.078 69.228 526.094 68.6327 524.619 67.4421C523.145 66.2515 522.408 64.6782 522.408 62.7221C522.408 60.8228 523.089 59.292 524.449 58.1298C525.838 56.9675 528.035 56.3864 531.04 56.3864H538.141V55.0257C538.141 53.098 537.603 51.6381 536.526 50.6459C535.448 49.6254 533.875 49.1151 531.806 49.1151C530.388 49.1151 529.028 49.3561 527.724 49.838C526.42 50.2915 525.3 50.9294 524.364 51.7515L523.004 49.4978C524.138 48.534 525.498 47.7969 527.086 47.2867C528.673 46.748 530.346 46.4787 532.103 46.4787ZM531.04 66.8468C532.741 66.8468 534.201 66.4641 535.42 65.6987C536.639 64.9049 537.546 63.771 538.141 62.2969V58.64H531.125C527.298 58.64 525.385 59.9724 525.385 62.6371C525.385 63.9411 525.881 64.9758 526.873 65.7412C527.865 66.4783 529.254 66.8468 531.04 66.8468ZM568.155 46.6488L558.205 69.0154H555.101L545.193 46.6488H548.34L556.717 65.6987L565.179 46.6488H568.155ZM581.352 66.5491C582.741 66.5491 584.016 66.3082 585.179 65.8262C586.369 65.316 587.376 64.5789 588.198 63.6151L589.899 65.5711C588.907 66.7617 587.673 67.6689 586.199 68.2925C584.725 68.9162 583.095 69.228 581.309 69.228C579.013 69.228 576.972 68.7461 575.186 67.7823C573.4 66.7901 572.011 65.4294 571.019 63.7002C570.027 61.9709 569.531 60.0149 569.531 57.8321C569.531 55.6493 569.998 53.6933 570.934 51.9641C571.898 50.2349 573.216 48.8883 574.888 47.9245C576.561 46.9607 578.46 46.4787 580.586 46.4787C582.571 46.4787 584.357 46.9323 585.944 47.8394C587.56 48.7466 588.836 50.0081 589.771 51.6239C590.735 53.2397 591.245 55.0824 591.302 57.1518L572.932 60.7236C573.499 62.5379 574.52 63.9695 575.994 65.0183C577.496 66.0389 579.282 66.5491 581.352 66.5491ZM580.586 49.0726C579.027 49.0726 577.624 49.4411 576.377 50.1782C575.158 50.8869 574.194 51.8932 573.485 53.1972C572.805 54.4729 572.465 55.947 572.465 57.6195C572.465 58.0447 572.479 58.3566 572.507 58.555L588.283 55.4934C587.943 53.6224 587.078 52.0916 585.689 50.901C584.3 49.6821 582.599 49.0726 580.586 49.0726ZM608.843 46.4787C611.649 46.4787 613.875 47.3008 615.519 48.945C617.191 50.5609 618.028 52.9279 618.028 56.0462V69.0154H615.008V56.3438C615.008 54.0193 614.427 52.2476 613.265 51.0286C612.103 49.8096 610.444 49.2001 608.29 49.2001C605.88 49.2001 603.967 49.923 602.55 51.3688C601.16 52.7862 600.466 54.7564 600.466 57.2793V69.0154H597.447V46.6488H600.338V50.7735C601.16 49.4128 602.294 48.3639 603.74 47.6268C605.214 46.8614 606.915 46.4787 608.843 46.4787ZM505.329 81.772C509.128 81.772 512.104 82.6791 514.259 84.4934C516.413 86.3077 517.49 88.8023 517.49 91.9773C517.49 95.1523 516.413 97.6469 514.259 99.4611C512.104 101.247 509.128 102.14 505.329 102.14H497.335V111.537H494.188V81.772H505.329ZM505.244 99.3761C508.192 99.3761 510.446 98.7383 512.005 97.4626C513.564 96.1586 514.344 94.3302 514.344 91.9773C514.344 89.5677 513.564 87.7251 512.005 86.4494C510.446 85.1454 508.192 84.4934 505.244 84.4934H497.335H494.188V91.5166L494.188 99.4895L497.335 99.3761H505.244ZM524.072 79.9861H527.091V111.537H524.072V79.9861ZM543.315 89.0007C546.235 89.0007 548.474 89.7378 550.034 91.2119C551.593 92.6576 552.372 94.8121 552.372 97.6752V111.537H549.481V108.051C548.8 109.213 547.794 110.12 546.462 110.772C545.158 111.424 543.599 111.75 541.784 111.75C539.29 111.75 537.305 111.155 535.831 109.964C534.357 108.773 533.62 107.2 533.62 105.244C533.62 103.345 534.3 101.814 535.661 100.652C537.05 99.4895 539.247 98.9084 542.252 98.9084H549.353V97.5477C549.353 95.62 548.815 94.1601 547.737 93.1679C546.66 92.1474 545.087 91.6371 543.017 91.6371C541.6 91.6371 540.239 91.8781 538.935 92.36C537.631 92.8135 536.512 93.4514 535.576 94.2735L534.215 92.0198C535.349 91.056 536.71 90.3189 538.298 89.8087C539.885 89.27 541.558 89.0007 543.315 89.0007ZM542.252 109.369C543.953 109.369 545.413 108.986 546.632 108.221C547.851 107.427 548.758 106.293 549.353 104.819V101.162H542.337C538.51 101.162 536.597 102.494 536.597 105.159C536.597 106.463 537.093 107.498 538.085 108.263C539.077 109 540.466 109.369 542.252 109.369ZM571.968 89.0007C574.775 89.0007 577 89.8228 578.644 91.467C580.317 93.0829 581.153 95.4499 581.153 98.5682V111.537H578.134V98.8658C578.134 96.5413 577.553 94.7696 576.391 93.5506C575.228 92.3316 573.57 91.7221 571.415 91.7221C569.006 91.7221 567.092 92.445 565.675 93.8908C564.286 95.3082 563.591 97.2783 563.591 99.8013V111.537H560.572V89.1708H563.464V93.2955C564.286 91.9348 565.42 90.8859 566.866 90.1488C568.34 89.3834 570.041 89.0007 571.968 89.0007Z" fill="url(#paint0_linear_401_570)" stroke="url(#paint1_linear_401_570)" stroke-width="2" mask="url(#path-2-inside-1_401_570)"/>
<path d="M413.016 20.5993L422.619 22.1111L427.695 24.86L430.164 29.3955L426.166 28.1191L420.698 30.2202M413.016 20.5993L406.979 18.95L402.041 19.3623L390.38 29.3955M413.016 20.5993L390.38 29.3955M390.38 29.3955L381.6 60.3197M390.38 29.3955L417.406 35.168M390.38 29.3955L420.698 30.2202M390.38 29.3955L419.052 63.4808M381.6 60.3197L399.023 90.0069M381.6 60.3197L402.041 84.9216M381.6 60.3197L419.052 63.4808M381.6 60.3197L441.719 86.0226M399.023 90.0069L402.041 84.9216M399.023 90.0069L413.5 93.625M402.041 84.9216L413.5 93.625M413.5 93.625L422.619 99.425M413.5 93.625L411.325 123.35L422.619 99.425M422.619 99.425L432.966 102.023M432.966 102.023L449.072 104.713L459.659 106.621M432.966 102.023L450.899 119L465.86 131.919L461.301 116.67M432.966 102.023L461.301 116.67M417.406 35.168L420.698 30.2202M417.406 35.168L419.052 63.4808M417.406 35.168L444.675 64.625L455.955 77.6372L461.301 98.1825M417.406 35.168L432.995 67.7754L441.719 86.0226M461.301 116.67L478.042 120.381L459.659 106.621M459.659 106.621L479.688 110.23L461.301 98.1825M441.719 86.0226L461.301 98.1825" stroke="url(#paint2_linear_401_570)"/>
<defs>
<linearGradient id="paint0_linear_401_570" x1="556.108" y1="39.25" x2="556.108" y2="111.75" gradientUnits="userSpaceOnUse">
<stop stop-color="#C1A3FD"/>
<stop offset="0.541667" stop-color="#755DE5"/>
<stop offset="1" stop-color="#543792"/>
</linearGradient>
<linearGradient id="paint1_linear_401_570" x1="517.072" y1="40.6094" x2="527.161" y2="115.642" gradientUnits="userSpaceOnUse">
<stop stop-color="#C1A3FD"/>
<stop offset="0.494792" stop-color="#755DE5"/>
<stop offset="1" stop-color="#543792"/>
</linearGradient>
<linearGradient id="paint2_linear_401_570" x1="399.725" y1="21.125" x2="430.644" y2="134.95" gradientUnits="userSpaceOnUse">
<stop stop-color="#C1A3FD"/>
<stop offset="0.494792" stop-color="#755DE5"/>
<stop offset="1" stop-color="#543792"/>
</linearGradient>
</defs>
</svg>
